<svg xmlns="http://www.w3.org/2000/svg" width="86" height="91" viewBox="0 0 86 91">
  <defs>
    <style>
      .cls-1 {
        fill: #ff8e39;
        fill-rule: evenodd;
      }
    </style>
  </defs>
  <path class="cls-1" d="M81.366,78.422c-1.094-3.983-3.639-12.891-3.639-12.891L77.52,64.8a9.945,9.945,0,0,0,1.623-1.584c1.729-2.108,2.354-4.457,1.4-5.248-0.878-.725-2.782.116-4.425,1.886l-3.2-11.274a9.672,9.672,0,0,0,1.873-1.767c1.729-2.108,2.354-4.457,1.4-5.248-0.919-.759-2.963.2-4.654,2.142L67.921,31.016s13.3-16.408,10.362-21.1C73.13,7.929,59.64,24.177,59.64,24.177l-13.105-1.11c1.575-2.04,2.119-4.236,1.2-4.995-0.957-.791-3.135.277-4.864,2.385A9.7,9.7,0,0,0,41.5,22.642l-11.642-.986c1.415-1.959,1.872-4,.994-4.72-0.957-.791-3.135.277-4.864,2.385a9.956,9.956,0,0,0-1.237,1.9L24,21.159s-9.2-.793-13.308-1.1A7.347,7.347,0,0,0,4.4,22.8L45.9,40.54C36.114,52.071,32.17,59.834,32.17,59.834L17.6,58.5l-3.17,3.865,12.935,5.5c-2.241,4.308-1.148,5.534-1.148,5.534s1.41,0.841,5.192-2.195l7.863,11.68,3.17-3.865-4.109-14.09s6.833-5.377,16.23-17.227L79.89,85.144A7.4,7.4,0,0,0,81.366,78.422Z"/>
</svg>
