<svg xmlns="http://www.w3.org/2000/svg" width="86" height="91" viewBox="0 0 86 91">
  <defs>
    <style>
      .cls-1 {
        fill: #ff8e44;
        fill-rule: evenodd;
      }
    </style>
  </defs>
  <path id="Rectangle_22_copy_4" data-name="Rectangle 22 copy 4" class="cls-1" d="M22.554,7.043l3.13,3.046-0.735,4.29L28.8,12.353l3.848,2.025-0.735-4.29,3.13-3.046-4.311-.622L28.8,2.53,26.865,6.421Zm14,0,3.13,3.046-0.734,4.29L42.8,12.353l3.848,2.025-0.734-4.29,3.13-3.046-4.311-.622L42.8,2.53,40.865,6.421Zm15,0,3.13,3.046-0.734,4.29L57.8,12.353l3.848,2.025-0.734-4.29,3.13-3.046-4.311-.622L57.8,2.53,55.865,6.421ZM78,82V21a5,5,0,0,0-5-5H13a5,5,0,0,0-5,5V82H4v6H83V82H78ZM18,25H32V35H18V25Zm18,0H50V35H36V25Zm18,0H68V35H54V25ZM18,41H32V51H18V41Zm18,0H50V51H36V41Zm18,0H68V51H54V41ZM18,56H32V66H18V56Zm18,0H50V76H36V56Zm18,0H68V66H54V56Z"/>
</svg>
