<svg xmlns="http://www.w3.org/2000/svg" width="86" height="91" viewBox="0 0 86 91">
  <defs>
    <style>
      .cls-1 {
        fill: #ff8e39;
        fill-rule: evenodd;
      }
    </style>
  </defs>
  <path class="cls-1" d="M22.608,9A16.56,16.56,0,0,0,6,25.608V67.884a7.53,7.53,0,0,0,1.51,4.53v4.529a4.449,4.449,0,0,0,4.529,4.529h6.039a4.449,4.449,0,0,0,4.529-4.529v-1.51H39.216V66.091a12.37,12.37,0,0,1,.755-4.1l2.406-5.426,1.51-3.3a6.533,6.533,0,0,1,1.085-1.7h-28.4a3.028,3.028,0,0,1-3.02-3.02V28.628a3.029,3.029,0,0,1,3.02-3.02H52.8a3.029,3.029,0,0,1,3.02,3.02V46.746h7.549V25.608A16.56,16.56,0,0,0,46.766,9H22.608Zm1.51,6.039H46.766a1.426,1.426,0,0,1,1.51,1.51v3.02a1.426,1.426,0,0,1-1.51,1.51H24.118a1.426,1.426,0,0,1-1.51-1.51v-3.02A1.426,1.426,0,0,1,24.118,15.039ZM53.7,49.766A7.53,7.53,0,0,0,46.766,54.3l-1.51,3.3L42.85,63.071a9.762,9.762,0,0,0-.613,3.02V81.472a2.853,2.853,0,0,0,3.02,3.02h4.529a2.853,2.853,0,0,0,3.02-3.02v-1.51H70.923v1.51a2.853,2.853,0,0,0,3.02,3.02h4.529a2.853,2.853,0,0,0,3.02-3.02V66.091a7.212,7.212,0,0,0-.613-3.02L76.962,54.3a7.781,7.781,0,0,0-6.936-4.529H53.7Zm0.142,3.02H70.168a4.69,4.69,0,0,1,4.246,2.737l1.935,4.2a3.719,3.719,0,0,1,.33,1.227v2.406a1.426,1.426,0,0,1-1.51,1.51H48.889a1.426,1.426,0,0,1-1.51-1.51V60.948a2.939,2.939,0,0,1,.283-1.227l1.982-4.2A4.623,4.623,0,0,1,53.843,52.785ZM18.834,57.315A5.284,5.284,0,1,1,13.549,62.6,5.349,5.349,0,0,1,18.834,57.315ZM51.3,67.884a3.02,3.02,0,1,1-3.02,3.02A3.029,3.029,0,0,1,51.3,67.884Zm21.138,0a3.02,3.02,0,1,1-3.02,3.02A3.029,3.029,0,0,1,72.433,67.884Z"/>
</svg>
