<svg xmlns="http://www.w3.org/2000/svg" width="86" height="91" viewBox="0 0 86 91">
  <defs>
    <style>
      .cls-1 {
        fill: #ff8e39;
        fill-rule: evenodd;
      }
    </style>
  </defs>
  <path class="cls-1" d="M33.934,64.665a24.9,24.9,0,0,1-4.262.948,28.8,28.8,0,0,1-5.581-.038A22.661,22.661,0,0,1,4.66,45.9a30.51,30.51,0,0,1,0-5.277,23.025,23.025,0,0,1,2.248-7.486A22.66,22.66,0,0,1,25.614,20.79a32.4,32.4,0,0,1,4.438.152,22.028,22.028,0,0,1,12.9,6.419,23.581,23.581,0,0,1,3.129,3.868l-4.486.136a18.141,18.141,0,0,0-4.662-4.213,19.211,19.211,0,0,0-7.086-2.591,24.662,24.662,0,0,0-4.724-.133A18.9,18.9,0,0,0,13.461,30.1,18.677,18.677,0,0,0,8.317,40.544a23.687,23.687,0,0,0,0,5.448,19.508,19.508,0,0,0,2.61,7.182,20.209,20.209,0,0,0,6.191,6.191,18.887,18.887,0,0,0,15.933,1.807Zm-0.71-20.177H26.568c0-1.886,0-3.849,0-5.734V33.076l-0.19-.381a1.782,1.782,0,0,0-2.3-.819,1.893,1.893,0,0,0-1.01,1.3c-0.057.3-.1,2.629-0.076,7.01L23,46.735l0.229,0.438a1.8,1.8,0,0,0,.514.648l0.3,0.191C24.781,48,25.725,48,26.661,48.006c1.767,0.005,6.183,0,6.183,0h0.38V44.487Zm2.662-7.579V62.34a3.671,3.671,0,0,0,3.632,3.636h4.3V33.6h-4.3A3.624,3.624,0,0,0,35.886,36.908ZM77.135,33.6h-4.3v32.38h4.3a3.671,3.671,0,0,0,3.632-3.636V36.908A3.624,3.624,0,0,0,77.135,33.6Zm-8.9,0a6.618,6.618,0,0,0-6.6-6.605h-6.6a6.618,6.618,0,0,0-6.6,6.605h-2v32.38H70.193V33.6H68.235Zm-3.309,0h-13.2a3.31,3.31,0,0,1,3.309-3.312h6.6a3.331,3.331,0,0,1,3.29,3.312h0ZM57.812,39.51l-4.1,4.1,3.4,3.4,3.4,3.4,4.1-4.111,4.11-4.105-0.134-3.284c-0.07-1.808-.14-3.29-0.153-3.3s-1.234-.051-2.729-0.1-2.958-.083-3.251-0.1L61.922,35.4Zm7.815-1.686a1.783,1.783,0,0,1,1,1.512,1.885,1.885,0,0,1-.456,1.122,1.662,1.662,0,0,1-2.6-.181,1.64,1.64,0,0,1-.048-1.816A1.658,1.658,0,0,1,65.627,37.825Z"/>
</svg>
