<svg xmlns="http://www.w3.org/2000/svg" width="86" height="91" viewBox="0 0 86 91">
  <defs>
    <style>
      .cls-1 {
        fill: #ff8e39;
        fill-rule: evenodd;
      }
    </style>
  </defs>
  <path class="cls-1" d="M43.314,49.38L42.4,48.467s-0.788-.819-2.332-2.457-2.679-2.9-3.341-3.78-1.859-2.457-3.593-4.694a29.6,29.6,0,0,1-3.5-5.418A22.046,22.046,0,0,1,27.4,22.982a16.029,16.029,0,0,1,.567-4.221,17.527,17.527,0,0,1,1.576-3.875,15.7,15.7,0,0,1,2.49-3.308,16.745,16.745,0,0,1,3.183-2.615,13.9,13.9,0,0,1,3.75-1.67,15.669,15.669,0,0,1,4.192-.6,15.1,15.1,0,0,1,6.114,1.292,15.331,15.331,0,0,1,5.011,3.465,16.43,16.43,0,0,1,4.57,11.309,22.346,22.346,0,0,1-2.521,9.482c-1.7,2.646-3.624,5.387-5.8,8.222-2.175,2.867-3.908,5.04-5.263,6.584ZM43.22,29.219a7.142,7.142,0,0,0,2.175-.347,6.075,6.075,0,0,0,1.891-1.008,7.325,7.325,0,0,0,1.481-1.481,6.723,6.723,0,0,0,.977-1.89,7.5,7.5,0,0,0,.347-2.205,6.568,6.568,0,0,0-2.048-4.883A6.965,6.965,0,0,0,36.16,22.288a6.661,6.661,0,0,0,.945,3.465,6.906,6.906,0,0,0,2.521,2.52A7.218,7.218,0,0,0,43.22,29.219ZM9.215,80.379a3.225,3.225,0,0,1-1.765-.535A2.983,2.983,0,0,1,6,77.166V28.652a3.222,3.222,0,0,1,.536-1.764,3.025,3.025,0,0,1,1.45-1.2l13.8-5.922a24.565,24.565,0,0,0-.158,2.52,23.917,23.917,0,0,0,.473,4.379l-9.675,4.127V72.22L28.6,65.289V40.465a94.113,94.113,0,0,0,6.461,7.97V65.289l16.167,6.93V48.309c2.332-2.835,4.475-5.67,6.461-8.443V72.22l16.168-6.93V23.864L63.8,28.179a22.68,22.68,0,0,0,.882-6.08c0-.126-0.032-0.567-0.063-1.323l11.219-4.788a2.823,2.823,0,0,1,1.261-.252,3.476,3.476,0,0,1,1.765.5,3.034,3.034,0,0,1,1.45,2.709V67.431a3.222,3.222,0,0,1-.536,1.764,3.026,3.026,0,0,1-1.45,1.2L55.574,80.127a3.029,3.029,0,0,1-2.269,0L31.843,70.96,10.444,80.1A2.358,2.358,0,0,1,9.215,80.379Z"/>
</svg>
