<svg xmlns="http://www.w3.org/2000/svg" width="86" height="91" viewBox="0 0 86 91">
  <defs>
    <style>
      .cls-1 {
        fill: #ff8e39;
        fill-rule: evenodd;
      }
    </style>
  </defs>
  <path class="cls-1" d="M37.057,5.94C32.713,6.4,29.422,7.224,28.5,8.015c-0.823.725-1.02,1.482-1.02,4.282a10.763,10.763,0,0,1-.23,2.832c-0.3.593-1.02,0.955-3.225,1.647-2.6.823-2.534,0.593-2.534,6.982,0,4.841.033,5.138,0.329,5.006a69.274,69.274,0,0,1,18.133-4.611c1.152-.1,2.337-0.231,2.633-0.263a39.559,39.559,0,0,1,6.648.626,77.948,77.948,0,0,1,13.427,3.59,8.131,8.131,0,0,0,1.975.626c0.033-.066.1-2.273,0.1-4.94,0.033-6.422.066-6.324-3.324-7.345-2.666-.79-2.633-0.725-2.731-4.315s-0.329-4.084-1.942-4.71a30.074,30.074,0,0,0-5.66-1.284A116.855,116.855,0,0,0,37.057,5.94Zm13.789,5.5a2.953,2.953,0,0,1,2.04.856,1.365,1.365,0,0,1,.165,1.91c-0.428.527-.559,0.527-5.266,0.2a75.984,75.984,0,0,0-11.946.165c-1.974.2-2.567,0.066-2.83-.757a1.7,1.7,0,0,1,.889-1.943,11.367,11.367,0,0,1,2.6-.56A83,83,0,0,1,50.846,11.44ZM39.031,27.809A63.255,63.255,0,0,0,9.742,39.633c-2.731,2.075-4.607,3.722-5.1,4.578A3.728,3.728,0,0,0,4.576,47.6C4.773,48,8,53.7,11.783,60.217c4.871,8.5,7.01,12.021,7.4,12.285a3.855,3.855,0,0,0,3.126.428,3.387,3.387,0,0,0,1.777-1.153c2.337-2.6,3.324-3.458,4.509-4.051,3.916-1.877,8.227-.626,11.156,3.261a5.98,5.98,0,0,0,1.316,1.449c0.23,0.1.3-2.24,0.3-22.4,0-21.342-.033-22.528-0.329-22.528C40.874,27.545,39.953,27.677,39.031,27.809Zm5.726,22.33c0,20.618.033,22.627,0.3,22.627,0.329,0,.724-0.428,2.567-2.5a9.74,9.74,0,0,1,3.784-2.8c3.818-1.449,7.832-.1,10.531,3.524A5.85,5.85,0,0,0,63.647,72.7c0.889,0.428,2.962.494,3.324,0.066,0.165-.165,3.521-5.928,7.536-12.845C81.55,47.7,81.78,47.307,81.879,46.187c0.132-1.844-.263-2.371-3.982-5.368A61.93,61.93,0,0,0,51.932,28.665c-2.04-.428-6.45-1.12-7.108-1.12C44.79,27.513,44.758,37.69,44.758,50.139ZM8.525,72.436a3.712,3.712,0,0,0-1.711,4.841c1.316,3.458,5.463,6.719,10.235,8a23.537,23.537,0,0,0,6.845.3,18.43,18.43,0,0,0,7.635-3.228l0.757-.593,1.02,0.757a18.7,18.7,0,0,0,5.331,2.6,12.54,12.54,0,0,0,4.574.494,12.349,12.349,0,0,0,4.476-.428,17.3,17.3,0,0,0,6.483-3.293c0.165-.1.724,0.2,1.645,0.856a16.773,16.773,0,0,0,5.529,2.635,18.587,18.587,0,0,0,7.273.1C74.7,84.161,80.168,79.55,80.168,75.73A3.187,3.187,0,0,0,78.983,73c-1.711-1.515-3.784-1.219-5.4.725-1.777,2.174-3.225,3.458-4.377,3.952-0.987.4-1.415,0.461-3.653,0.461-3.785,0-5-.593-7.372-3.458-1.777-2.174-2.337-2.569-3.686-2.569-1.514.033-2.435,0.593-3.686,2.338a8.1,8.1,0,0,1-6.878,3.722,8.686,8.686,0,0,1-8.063-3.656A5.668,5.668,0,0,0,33.5,72.337c-1.547-.692-3.258.066-4.739,2.108a9.893,9.893,0,0,1-4.081,3.195,7.634,7.634,0,0,1-3.422.428c-2.04.033-2.5-.033-3.423-0.428a9.424,9.424,0,0,1-3.982-3.03c-1.646-1.976-2.337-2.47-3.521-2.569A2.935,2.935,0,0,0,8.525,72.436Z"/>
</svg>
