<?xml version="1.0" encoding="UTF-8" standalone="no"?>
<!-- Created with Inkscape (http://www.inkscape.org/) -->

<svg
   width="101.73228mm"
   height="73.220932mm"
   viewBox="0 0 101.73229 73.220932"
   version="1.1"
   id="svg7277"
   sodipodi:docname="sunair_logo.svg"
   xml:space="preserve"
   inkscape:version="1.2.2 (1:1.2.2+202305151914+b0a8486541)"
   xmlns:inkscape="http://www.inkscape.org/namespaces/inkscape"
   xmlns:sodipodi="http://sodipodi.sourceforge.net/DTD/sodipodi-0.dtd"
   xmlns="http://www.w3.org/2000/svg"
   xmlns:svg="http://www.w3.org/2000/svg"><sodipodi:namedview
     id="namedview7279"
     pagecolor="#ffffff"
     bordercolor="#000000"
     borderopacity="0.25"
     inkscape:showpageshadow="2"
     inkscape:pageopacity="0.0"
     inkscape:pagecheckerboard="0"
     inkscape:deskcolor="#d1d1d1"
     inkscape:document-units="mm"
     showgrid="false"
     inkscape:zoom="6.4273419"
     inkscape:cx="330.30762"
     inkscape:cy="245.66921"
     inkscape:window-width="1366"
     inkscape:window-height="627"
     inkscape:window-x="0"
     inkscape:window-y="32"
     inkscape:window-maximized="1"
     inkscape:current-layer="layer2" /><defs
     id="defs7274" /><g
     inkscape:label="Layer 1"
     inkscape:groupmode="layer"
     id="layer1"
     transform="translate(-52.426064,-34.658195)"><path
       d="m 70.022969,88.264077 c 0.003,-1.57811 0.70922,-6.89998 1.167482,-8.79739 1.590665,-6.58607 4.797425,-12.25812 9.65041,-17.06946 6.388941,-6.33411 13.842775,-9.52517 22.235359,-9.51917 10.76031,0.008 20.21501,5.11486 26.82225,14.48863 1.80951,2.56718 3.96801,7.04359 4.68632,9.71875 0.11722,0.43656 0.39195,1.44859 0.61052,2.24896 0.4793,1.75516 0.907,4.90856 1.0676,7.87135 l 0.11832,2.18281 H 103.20104 70.020855 l 0.0021,-1.12448 z m 68.955401,0.20638 c 0.17166,-0.44732 3.59496,-0.59162 10.8805,-0.45862 3.54804,0.0648 4.29948,0.1457 4.29948,0.46302 0,0.32748 -1.13735,0.38454 -7.66461,0.38454 -6.63474,0 -7.64456,-0.0523 -7.51537,-0.38894 z m -75.302923,-0.61189 c -3.258078,-0.0738 -4.113185,-0.28808 -3.519264,-0.882 0.446834,-0.44684 7.218839,-0.0326 7.218839,0.44151 0,0.51211 -0.08575,0.52232 -3.699575,0.44049 z m 75.302133,-1.52273 c -0.25095,-0.65397 0.44035,-0.73558 4.13029,-0.48764 2.36626,0.159 3.50321,0.33818 3.57744,0.5638 0.0837,0.25436 -0.7756,0.33073 -3.7214,0.33073 -3.20244,0 -3.85578,-0.0667 -3.98633,-0.40689 z m -82.84735,-1.16919 c -3.052331,-0.11842 -3.704166,-0.21355 -3.704166,-0.54059 0,-0.45469 1.469944,-0.47497 10.120312,-0.13963 4.078453,0.15811 5.093229,0.27076 5.093229,0.56541 0,0.39324 -3.446912,0.42762 -11.509375,0.11481 z m 82.59409,-0.71698 c -0.097,-0.097 -0.17639,-0.33513 -0.17639,-0.52916 0,-0.28573 1.43316,-0.35278 7.54063,-0.35278 7.36423,0 7.54062,0.0124 7.54062,0.52917 0,0.51649 -0.17639,0.52916 -7.36423,0.52916 -4.05033,0 -7.44361,-0.0794 -7.54063,-0.17639 z m -73.06909,-1.28059 c -0.145521,-0.0507 -1.425443,-0.17153 -2.844271,-0.26838 -1.899945,-0.1297 -2.579687,-0.27006 -2.579687,-0.53267 0,-0.19612 0.0893,-0.4105 0.198437,-0.47643 0.19953,-0.12051 4.254486,0.19267 6.35,0.49043 1.474198,0.20948 1.580186,0.93071 0.132292,0.90023 -0.545703,-0.0115 -1.11125,-0.0624 -1.256771,-0.11318 z m 72.69395,-1.13412 c -0.0722,-0.18817 -0.0867,-0.38194 -0.0324,-0.43058 0.1835,-0.16421 7.20172,-0.65721 7.42157,-0.52133 0.11984,0.0741 0.21789,0.30623 0.21789,0.51592 0,0.26799 -0.33407,0.38914 -1.12448,0.40777 -0.61847,0.0146 -2.30054,0.10388 -3.73795,0.19844 -2.01883,0.13281 -2.64331,0.0941 -2.74466,-0.17022 z m -74.546033,-0.85742 c -0.727604,-0.11586 -2.513542,-0.34489 -3.96875,-0.50896 -6.081204,-0.68562 -6.746875,-0.82309 -6.746875,-1.39331 0,-0.41344 0.128639,-0.49613 0.595312,-0.38266 0.327422,0.0796 2.143125,0.33075 4.034896,0.55807 1.891771,0.22733 4.273021,0.52658 5.291667,0.66501 1.018646,0.13842 2.596224,0.32861 3.505729,0.42263 1.160742,0.12 1.653646,0.2815 1.653646,0.54185 0,0.41925 -2.056197,0.46512 -4.365625,0.0974 z m 74.043953,-1.45348 c -0.0871,-0.22687 -0.11381,-0.45216 -0.0594,-0.50066 0.0978,-0.0872 4.19977,-0.45135 11.03431,-0.97952 3.51938,-0.27197 4.60742,-0.19135 4.11141,0.30466 -0.25114,0.25115 -2.30514,0.48063 -9.35835,1.04555 -1.96453,0.15735 -4.02137,0.34377 -4.57076,0.41427 -0.74435,0.0955 -1.03921,0.0231 -1.15716,-0.2843 z m -73.977807,-1.00715 c -1.764744,-0.34466 -2.844271,-0.67844 -2.844271,-0.87943 0,-0.5155 0.351698,-0.60256 1.469451,-0.36375 0.57425,0.12269 2.20495,0.427 3.623778,0.67624 1.80008,0.31621 2.579688,0.56366 2.579688,0.81879 0,0.50111 -1.327931,0.43185 -4.828646,-0.25185 z m 73.355727,-1.36689 c 0,-0.21828 0.20836,-0.40572 0.46302,-0.41654 0.25466,-0.0108 0.76068,-0.0673 1.12448,-0.12548 0.3638,-0.0582 1.61396,-0.23506 2.77812,-0.393 1.16417,-0.15795 2.38456,-0.34187 2.71198,-0.40872 0.46093,-0.0941 0.59531,-10e-4 0.59531,0.41266 0,0.29381 -0.14882,0.53491 -0.33073,0.53577 -0.1819,7.9e-4 -1.51098,0.17945 -2.9535,0.39687 -3.39524,0.51174 -4.38868,0.51139 -4.38868,-0.002 z m -75.141665,-1.33379 c -3.419739,-0.77904 -6.485599,-1.42271 -6.813021,-1.43039 -0.414274,-0.01 -0.595312,-0.17487 -0.595312,-0.54311 0,-0.29104 0.103685,-0.52917 0.230411,-0.52917 0.126727,0 1.882899,0.36269 3.902604,0.80598 2.019707,0.44329 4.803287,1.05313 6.185735,1.3552 4.183379,0.91409 4.497917,1.01345 4.497917,1.42089 0,0.56498 -0.527257,0.48816 -7.408334,-1.0794 z m 74.654855,-0.80745 c 0.0708,-0.36748 0.5106,-0.56466 1.81149,-0.81209 0.94492,-0.17973 4.2121,-0.80942 7.26042,-1.39932 3.70361,-0.71672 5.63039,-0.98457 5.80761,-0.80735 0.48536,0.48537 -0.17901,0.70487 -4.73542,1.56455 -2.47386,0.46676 -5.39089,1.03581 -6.48229,1.26458 -3.46384,0.72603 -3.76814,0.74178 -3.66181,0.18963 z m -70.884542,-0.82501 c -2.097325,-0.61029 -3.241146,-1.07032 -3.241146,-1.30354 0,-0.53572 0.578688,-0.45491 4.271594,0.59651 2.507271,0.71386 3.325335,1.0499 3.220567,1.32292 -0.195432,0.50929 -0.571545,0.4548 -4.251015,-0.61589 z m 70.314822,-1.33323 c 0.002,-0.37463 0.68756,-0.63129 3.59434,-1.34454 1.9759,-0.48484 3.65667,-0.8174 3.73505,-0.73902 0.46878,0.46878 -0.50581,0.93706 -3.53005,1.69616 -1.87235,0.46997 -3.49357,0.85357 -3.60271,0.85245 -0.10914,-10e-4 -0.19763,-0.21039 -0.19663,-0.46505 z m -67.073676,-0.18519 c -0.582084,-0.19709 -2.665678,-0.85495 -4.630209,-1.46191 -1.964531,-0.60695 -4.226719,-1.3203 -5.027083,-1.58522 -0.800365,-0.26492 -1.78263,-0.55615 -2.182813,-0.64717 -0.480439,-0.10927 -0.727604,-0.33628 -0.727604,-0.66828 0,-0.58635 0.18284,-0.55187 4.7625,0.89826 1.527969,0.48382 4.355703,1.37405 6.283854,1.97829 2.391282,0.74937 3.50573,1.22117 3.50573,1.48414 0,0.47226 -0.593586,0.47283 -1.984375,0.002 z m 66.016056,-1.91364 c 0.002,-0.36061 0.44848,-0.6221 1.78593,-1.04568 0.98089,-0.31066 3.74796,-1.18272 6.14905,-1.93793 2.40109,-0.7552 4.63912,-1.48329 4.97339,-1.61798 0.89657,-0.36126 1.64119,-0.29794 1.64119,0.13955 0,0.21144 -0.38695,0.4996 -0.85989,0.64034 -0.47294,0.14075 -2.40771,0.75131 -4.29948,1.3568 -2.89256,0.9258 -4.65169,1.47786 -8.92969,2.80239 -0.32416,0.10036 -0.46227,-8e-4 -0.4605,-0.33749 z m -65.222306,-0.25575 c -4.519231,-1.74685 -5.159376,-2.0411 -5.159376,-2.37151 0,-0.47035 0.549571,-0.46606 1.64467,0.0128 0.47788,0.20898 1.910239,0.77453 3.18302,1.25678 1.272782,0.48225 2.314579,1.02564 2.315105,1.20754 0.0012,0.43465 -0.679481,0.3984 -1.983419,-0.10562 z m 64.312276,-1.65033 c -0.0797,-0.12904 0.003,-0.35255 0.18282,-0.4967 0.30302,-0.24226 6.61643,-2.70828 6.93366,-2.70828 0.0776,0 0.13814,0.20836 0.1346,0.46302 -0.005,0.34588 -0.82912,0.78096 -3.25844,1.71979 -3.4031,1.31516 -3.75576,1.40545 -3.99264,1.02217 z m -68.677902,-2.84009 c -3.56526,-1.53526 -6.56663,-2.8715 -6.669711,-2.96942 -0.103081,-0.0979 -0.0837,-0.34585 0.04308,-0.55098 0.189796,-0.3071 0.540373,-0.22494 1.985237,0.46523 0.965106,0.46101 1.810221,0.83819 1.878033,0.83819 0.06781,0 0.628013,0.231 1.244891,0.51333 2.171732,0.99394 8.006231,3.50489 8.463783,3.64248 0.254661,0.0766 0.463021,0.30395 0.463021,0.50526 0,0.20131 -0.20836,0.3618 -0.463021,0.35666 -0.254661,-0.005 -3.380052,-1.26549 -6.945313,-2.80075 z m 67.468742,0.81223 c 0,-0.22571 0.40596,-0.57999 0.90213,-0.78731 0.49617,-0.20731 2.05498,-0.91561 3.46404,-1.574 1.40905,-0.65838 2.60691,-1.19706 2.66191,-1.19706 0.055,0 0.7286,-0.28389 1.49689,-0.63086 4.65737,-2.1033 5.30121,-2.33325 5.52639,-1.9738 0.22141,0.35344 -1.40357,1.29498 -4.12948,2.39267 -0.58208,0.2344 -1.98157,0.85423 -3.10997,1.37741 -1.1284,0.52319 -2.10006,0.95124 -2.15923,0.95124 -0.0592,0 -0.99744,0.41672 -2.08503,0.92604 -2.21206,1.03592 -2.56765,1.10733 -2.56765,0.51567 z m -62.970825,-1.47539 c -1.673489,-0.88302 -3.094302,-1.65538 -3.157361,-1.71636 -0.06306,-0.061 0.01313,-0.23864 0.169301,-0.39481 0.363481,-0.36348 6.95681,2.82637 6.95681,3.3657 0,0.65502 -0.872433,0.37924 -3.96875,-1.25453 z m 61.921975,-0.35177 c -0.24204,-0.29164 0.3589,-0.69459 3.13827,-2.1043 1.8907,-0.95897 3.50374,-1.74358 3.58453,-1.74358 0.0808,0 0.14689,0.21057 0.14689,0.46792 0,0.33452 -0.93657,0.93444 -3.28516,2.1043 -2.69873,1.34427 -3.3386,1.57199 -3.58453,1.27566 z m -57.820933,-0.24811 c -0.291042,-0.18767 -1.422136,-0.8529 -2.513542,-1.47829 -1.091406,-0.62539 -2.639219,-1.52128 -3.439583,-1.99086 -0.800365,-0.46959 -1.99099,-1.15049 -2.645834,-1.51313 -3.949236,-2.187 -3.946614,-2.18504 -3.512263,-2.61939 0.220593,-0.2206 1.519679,0.40568 5.013854,2.41714 2.593865,1.49318 5.132837,2.9486 5.64216,3.23428 2.059512,1.15516 2.645833,1.58594 2.645833,1.94393 0,0.45936 -0.484064,0.46193 -1.190625,0.006 z m 56.485973,-0.97419 c -0.52154,-0.34703 -0.34266,-0.47763 4.76506,-3.47895 7.89124,-4.63692 8.73125,-5.04012 8.73125,-4.19099 0,0.11884 -1.27992,0.9637 -2.84427,1.87747 -1.56435,0.91376 -3.79677,2.21854 -4.96093,2.8995 -1.16417,0.68095 -2.54367,1.48043 -3.06556,1.77661 -0.52188,0.29617 -1.23741,0.72755 -1.59006,0.95862 -0.45072,0.29532 -0.7583,0.34217 -1.03549,0.15774 z m -57.762535,-2.47666 c -1.575233,-1.06798 -2.864085,-2.01762 -2.864114,-2.1103 -2.46e-4,-0.7774 0.546604,-0.56755 3.422865,1.31347 1.76873,1.15671 3.179724,2.22218 3.135542,2.3677 -0.184422,0.60742 -0.980961,0.26872 -3.694293,-1.57087 z m 56.455775,0.44639 c 0.008,-0.28889 1.05502,-1.14443 2.78289,-2.27497 2.96236,-1.93828 3.8181,-2.32273 3.8181,-1.71534 0,0.36796 -5.81744,4.45333 -6.34141,4.45333 -0.15024,0 -0.26706,-0.20836 -0.25958,-0.46302 z m -53.494507,-1.32514 c -8.067433,-5.76733 -10.283665,-7.4664 -10.283665,-7.88397 0,-0.21012 0.130444,-0.38203 0.289875,-0.38203 0.159432,0 2.272791,1.45311 4.696355,3.22913 2.423563,1.77603 5.150618,3.77032 6.060122,4.43177 1.553406,1.12974 2.077217,1.86695 1.322919,1.86187 -0.181901,-10e-4 -1.120423,-0.56677 -2.085606,-1.25677 z m 51.628827,-0.15897 c 0,-0.33378 12.19663,-8.6362 12.68696,-8.6362 0.12155,0 0.28653,0.17073 0.3666,0.3794 0.0999,0.26029 -0.65952,0.89971 -2.41909,2.03688 -1.41057,0.91161 -4.26191,2.76495 -6.33631,4.11852 -2.07441,1.35357 -3.89011,2.46103 -4.0349,2.46103 -0.14479,0 -0.26326,-0.16183 -0.26326,-0.35963 z m -50.799991,-2.05363 c -3.336988,-2.7586 -3.439584,-2.85229 -3.439584,-3.14124 0,-0.66666 1.010252,-0.0968 3.577209,2.01796 2.540707,2.09308 3.302508,3.02735 2.442062,2.99491 -0.181901,-0.007 -1.34276,-0.84909 -2.579687,-1.87163 z m 0.906102,-1.88883 c -1.611695,-1.49015 -4.112007,-3.79872 -5.556249,-5.13015 -2.081382,-1.9188 -2.559513,-2.48994 -2.305768,-2.75429 0.254692,-0.26534 0.849589,0.14828 2.910417,2.02356 1.424659,1.29639 2.64982,2.41999 2.722581,2.49689 0.07276,0.0769 1.441979,1.32721 3.042708,2.77847 1.600729,1.45126 2.910417,2.75609 2.910417,2.89961 0,0.79362 -1.106686,0.10595 -3.724106,-2.31409 z m 48.667389,2.31964 c -0.10173,-0.2651 0.0267,-0.57087 0.33183,-0.78987 0.27379,-0.19653 1.62889,-1.19847 3.01134,-2.22653 1.38245,-1.02806 2.5901,-1.8717 2.68367,-1.87475 0.0936,-0.003 0.23225,0.15631 0.30817,0.35415 0.0838,0.21844 -0.39863,0.7555 -1.22847,1.3675 -0.75157,0.55429 -1.78321,1.32087 -2.29254,1.70352 -2.41442,1.81393 -2.63615,1.92944 -2.814,1.46598 z m -1.85964,-0.81346 c -0.0875,-0.22806 -0.054,-0.50533 0.0744,-0.61614 0.12846,-0.11082 1.72185,-1.44171 3.54086,-2.95754 1.81901,-1.51583 3.36682,-2.81614 3.43958,-2.88959 0.0728,-0.0734 0.9062,-0.78668 1.85209,-1.58498 0.94588,-0.79831 1.88244,-1.60729 2.08123,-1.79775 0.38861,-0.37233 0.87375,-0.32127 1.0165,0.10698 0.0733,0.21978 -1.69021,1.78807 -6.50841,5.78806 -0.35057,0.29104 -1.63572,1.39237 -2.85588,2.44739 -1.22016,1.05503 -2.27761,1.91823 -2.34989,1.91823 -0.0723,0 -0.20302,-0.18659 -0.29053,-0.41466 z m -44.752148,-2.84117 c -2.584357,-2.59318 -3.11785,-3.35875 -2.340565,-3.35875 0.266584,0 3.349048,2.93818 5.669111,5.40375 0.0399,0.0424 -0.08585,0.20855 -0.279445,0.36921 -0.274424,0.22775 -0.946296,-0.30422 -3.049101,-2.41421 z m 43.192438,1.37843 c -0.19341,-0.31294 1.47376,-2.1223 3.93258,-4.26799 1.19943,-1.04669 1.60496,-1.26983 1.85208,-1.01911 0.24665,0.25024 -0.2961,0.89872 -2.46172,2.9413 -1.52797,1.44116 -2.8604,2.62376 -2.96095,2.628 -0.10055,0.004 -0.26345,-0.12275 -0.36199,-0.2822 z m -43.905183,-5.25938 c -4.946839,-4.93998 -5.79505,-5.96009 -4.955771,-5.96009 0.436259,0 10.908896,10.47621 10.908896,10.91261 0,0.1827 -0.148828,0.3321 -0.330729,0.332 -0.181901,-1e-4 -2.71198,-2.37813 -5.622396,-5.28452 z m 42.068753,4.49095 c -0.21568,-0.34898 -0.36596,-0.12829 4.32397,-6.35 4.83464,-6.41368 4.96297,-6.5616 5.35358,-6.17099 0.21124,0.21124 -0.99621,1.9987 -4.4166,6.53815 -2.58903,3.43608 -4.7951,6.24742 -4.90238,6.24742 -0.10728,0 -0.26864,-0.11906 -0.35857,-0.26458 z m -36.278945,-1.78594 c -0.561446,-0.69122 -1.646682,-1.91161 -2.411635,-2.71198 -1.398243,-1.46297 -1.713129,-2.11666 -1.019603,-2.11666 0.612187,0 5.585642,5.59363 5.261583,5.91769 -0.384704,0.3847 -0.865796,0.0985 -1.830345,-1.08905 z m 1.595755,-1.08187 c -0.856557,-1.11484 -1.757585,-2.26511 -2.00229,-2.55615 -2.191893,-2.60696 -5.991698,-7.67696 -5.884108,-7.85105 0.323556,-0.52352 0.880239,-0.091 2.357532,1.83178 0.8665,1.12779 1.722366,2.22912 1.901923,2.4474 1.859677,2.26072 5.898671,7.51681 5.898671,7.67615 0,0.1126 -0.160729,0.26641 -0.357179,0.34179 -0.220554,0.0846 -0.952884,-0.63827 -1.914549,-1.88992 z m 33.02173,1.74747 c -0.2213,-0.26664 0.20572,-1.09662 1.80943,-3.51694 1.96426,-2.96446 2.57759,-3.5902 2.81649,-2.8735 0.0789,0.2367 -3.40705,5.73073 -4.14314,6.52981 -0.10622,0.1153 -0.32347,0.0526 -0.48278,-0.13937 z m -31.592136,-3.52927 c -1.064795,-1.55806 -2.044237,-2.97857 -2.176537,-3.15669 -0.132299,-0.17812 -0.150463,-0.5484 -0.04037,-0.82284 0.230786,-0.57528 0.03636,-0.79274 2.865716,3.20518 2.170094,3.06637 2.101807,2.93111 1.663377,3.29497 -0.309584,0.25693 -0.719003,-0.18939 -2.312191,-2.52062 z m 30.259576,2.56304 c -0.25876,-0.15993 0.52625,-1.95608 3.1752,-7.26503 1.93542,-3.87891 3.61289,-7.05257 3.7277,-7.05257 0.69229,0 0.14541,1.43574 -2.83037,7.43065 -1.82724,3.68108 -3.41371,6.78435 -3.52551,6.89614 -0.11179,0.11179 -0.35795,0.10766 -0.54702,-0.009 z m -27.459673,-2.35819 c -0.53739,-1.12064 -2.03117,-4.22723 -3.319505,-6.90353 -1.288336,-2.67629 -2.34243,-5.02778 -2.34243,-5.22552 0,-0.88038 0.867063,-0.2598 1.43847,1.02954 0.33858,0.76398 1.753436,3.7427 3.144129,6.61937 2.940989,6.08348 2.972742,6.16604 2.448957,6.36703 -0.285293,0.10948 -0.659506,-0.40606 -1.369621,-1.88689 z m 25.404853,1.12994 c 0.21134,-0.84206 2.71443,-6.49515 3.00427,-6.78499 0.1083,-0.1083 0.32924,-0.11257 0.49098,-0.009 0.44044,0.2807 -2.59258,7.30292 -3.20634,7.42351 -0.39052,0.0767 -0.43936,-0.0296 -0.28891,-0.62904 z m -23.960514,-3.36591 c -1.542082,-3.81321 -1.575237,-3.9383 -1.087046,-4.10103 0.338669,-0.11289 0.624438,0.45708 2.445634,4.87777 0.820227,1.99099 0.930904,2.45738 0.612177,2.57969 -0.213987,0.0821 -0.425961,0.1493 -0.471049,0.1493 -0.04509,0 -0.719963,-1.57758 -1.499716,-3.50573 z m 21.733304,2.64499 c 0,-0.33437 0.21891,-1.10322 2.16553,-7.60593 0.58809,-1.96453 1.31286,-4.43507 1.6106,-5.4901 0.48463,-1.71723 0.96556,-2.33399 1.34104,-1.71979 0.0667,0.10914 -0.34273,1.74625 -0.90989,3.63802 -0.56716,1.89177 -1.20713,4.03489 -1.42217,4.7625 -1.67775,5.67697 -2.05973,6.74687 -2.40878,6.74687 -0.20698,0 -0.37633,-0.1492 -0.37633,-0.33157 z m -18.879275,-0.13542 c -0.0688,-0.11132 -0.508635,-1.62937 -0.977406,-3.37343 -0.46877,-1.74407 -1.067892,-3.94494 -1.331383,-4.89083 -1.021056,-3.66541 -1.830681,-6.65769 -1.830681,-6.76596 0,-0.0623 0.218236,-0.1132 0.48497,-0.1132 0.373894,0 0.580774,0.37875 0.903248,1.65364 0.230053,0.90951 0.843685,3.20146 1.363626,5.09323 0.801483,2.91614 1.71486,6.30876 2.190395,8.13594 0.120269,0.46212 -0.544793,0.67803 -0.802769,0.26061 z m 16.841765,-0.3929 c 0.0751,-0.32742 0.47305,-2.06826 0.88436,-3.86853 0.66355,-2.90422 1.11043,-3.86916 1.57619,-3.4034 0.14651,0.14651 -1.10753,5.94413 -1.54431,7.13964 -0.32816,0.89817 -1.11803,1.01221 -0.91624,0.13229 z m -14.895819,0.21788 c 0,-0.0621 -0.250933,-1.34198 -0.55763,-2.84427 -0.306697,-1.50228 -0.647301,-3.17465 -0.756899,-3.71637 -0.109596,-0.54172 -0.136475,-1.04773 -0.05973,-1.12448 0.480833,-0.48083 0.81157,0.10618 1.225775,2.17557 0.254863,1.27331 0.560089,2.67229 0.678281,3.10885 0.544504,2.0112 0.543057,2.51355 -0.0073,2.51355 -0.287398,0 -0.522547,-0.0508 -0.522547,-0.11285 z m 2.138757,-3.11525 c -0.169664,-1.64429 -0.515887,-5.28156 -0.769387,-8.08284 -0.441865,-4.88277 -0.441415,-5.09323 0.0109,-5.09323 0.259498,0 0.471813,0.15596 0.471813,0.34657 0,0.19061 0.232627,2.66116 0.516951,5.4901 0.51354,5.10962 0.914875,9.78502 0.861695,10.03833 -0.01527,0.0728 -0.197816,0.16793 -0.405638,0.21148 -0.296093,0.0621 -0.444612,-0.56773 -0.686334,-2.91041 z m 8.731172,2.23591 c 0.0121,-0.40018 0.16143,-2.21435 0.33184,-4.03149 0.27164,-2.89656 0.37167,-3.31579 0.81135,-3.40046 0.4578,-0.0882 0.48701,0.0268 0.33517,1.3195 -0.0915,0.77885 -0.24626,2.63649 -0.34396,4.12807 -0.15707,2.39811 -0.23426,2.71198 -0.66702,2.71198 -0.36283,0 -0.4837,-0.18816 -0.46738,-0.7276 z m 2.17578,-0.50205 c 0.54284,-4.32216 1.76727,-13.18319 1.92317,-13.91774 0.0879,-0.41424 0.33097,-0.72761 0.56436,-0.72761 0.46656,0 0.51113,-0.52882 -0.71348,8.46667 -0.42593,3.1287 -0.80923,6.04471 -0.85178,6.48003 -0.0519,0.53108 -0.24287,0.82292 -0.58044,0.88701 -0.45542,0.0865 -0.48781,-0.0261 -0.34183,-1.18836 z m -8.65262,-1.48233 c -0.35566,-5.64453 -0.35342,-5.75468 0.11729,-5.75468 0.36252,0 0.46692,0.41493 0.60938,2.42189 0.2861,4.03071 0.22549,5.78019 -0.20028,5.78019 -0.28191,0 -0.40958,-0.59357 -0.52639,-2.4474 z m 4.18267,0.52917 c 0.42816,-4.6281 0.7499,-6.31037 1.18936,-6.21894 0.23848,0.0496 0.39725,0.31291 0.36582,0.60668 -0.0305,0.28547 -0.18034,1.70966 -0.33291,3.16486 -0.39317,3.75003 -0.53392,4.36563 -0.99812,4.36563 -0.33849,0 -0.37372,-0.30152 -0.22415,-1.91823 z m -2.13271,0 c 0.0851,-0.9095 0.29555,-4.45161 0.46771,-7.87135 0.17216,-3.41974 0.41407,-6.33082 0.53759,-6.46907 0.1405,-0.15725 0.33535,-0.14056 0.52049,0.0446 0.21748,0.21748 0.2199,1.44138 0.009,4.61697 -0.15773,2.37658 -0.36571,5.89864 -0.46217,7.82679 -0.16327,3.26357 -0.21171,3.50573 -0.70142,3.50573 -0.48538,0 -0.51408,-0.1278 -0.37134,-1.65365 z"
       style="fill:#ef8203;fill-opacity:1;stroke-width:0.264583"
       id="path7267" /></g><g
     inkscape:groupmode="layer"
     id="layer2"
     inkscape:label="Layer 2"><path
       style="fill:#333a3a;stroke:none;stroke-width:0.264583"
       d="m 3.5680519,67.311876 c 1.3283936,5.007848 4.3523694,5.55625 8.9958331,5.55625 2.409349,0 5.10884,-0.296968 5.735082,-3.175 0.87675,-4.029287 -3.783833,-5.586995 -6.793415,-6.190747 -0.852038,-0.170948 -3.0700928,-0.278395 -3.4114053,-1.269022 -0.3215746,-0.933264 1.1460957,-1.566042 1.8239052,-1.714896 1.7234691,-0.378487 4.0350811,-0.185923 4.4979171,1.766331 l 0.79375,0.79375 2.645833,-0.264583 C 17.65894,57.131418 7.4360221,54.936157 4.7574598,59.904759 c -2.3775458,4.410261 4.0383619,6.268615 7.0126752,6.87795 0.82005,0.168011 2.191518,0.283475 2.778125,0.955437 0.650425,0.745093 -0.315066,1.643486 -0.927258,2.019909 -1.25521,0.771736 -3.7211799,0.697891 -5.0246496,0.06858 C 6.2186742,68.678713 6.7705157,66.707885 3.5680519,67.311876 M 20.236802,57.522292 c 0,3.65133 -1.02153,9.142069 0.75946,12.435417 1.960192,3.624766 10.741448,4.698815 12.99755,0.792533 1.853407,-3.208602 0.795073,-8.849572 0.795073,-12.4342 l -0.79375,-0.79375 h -2.645833 c 0,3.107823 0.893762,8.004281 -0.546365,10.847917 -0.954087,1.884151 -4.971256,2.869142 -6.430698,1.005655 -2.91928,-3.72708 2.685521,-11.853572 -4.135437,-11.853572 m 16.933333,0 v 14.816667 l 3.439584,0.529167 V 62.813959 h 0.264583 l 5.237692,6.879167 2.699808,2.939812 2.910417,0.235188 V 62.284792 L 51.399956,58.229074 48.282635,57.522292 V 67.841043 C 45.337294,64.195931 42.120001,56.300861 37.170135,57.522292 m 20.372917,14.816667 h 1.058333 l -0.264583,0.529167 h 3.175 l 1.322917,-3.96875 6.30846,0.235188 1.979348,3.146822 3.618442,0.58674 c -1.152261,-4.288552 -4.026694,-8.720535 -6.021652,-12.7 -0.849048,-1.693484 -1.821921,-3.164467 -3.992034,-2.588263 -1.256241,0.333552 -1.722437,2.610408 -2.221971,3.646596 -1.686718,3.497104 -3.957373,7.371848 -4.96226,11.1125 M 75.534719,57.522292 v 14.816667 l 3.704166,0.529167 V 58.316042 l -0.79375,-0.79375 h -2.910416 m 6.35,0 v 10.583334 l 0.235214,4.102259 3.204369,0.660241 v -6.085417 l 3.96875,0.362585 5.151967,5.523177 3.579283,0.199655 -5.027083,-6.614583 c 4.207933,-0.565256 4.677039,-5.524792 1.321593,-7.69619 -3.19061,-2.064832 -8.797925,-1.035061 -12.434093,-1.035061 m -66.939584,4.233334 c -0.752422,-2.479437 -3.260275,-2.880138 -5.5562497,-2.609083 -1.1666538,0.137716 -2.863268,0.917019 -2.7670919,2.344499 0.090858,1.348714 1.6740187,1.917568 2.7670919,2.169346 2.6684287,0.6146 8.6474297,1.063783 7.5822707,5.238988 -1.31318,5.147416 -11.8487299,3.88067 -12.6093541,-1.058333 2.5957213,0.04281 3.6994571,3.332083 6.8791671,3.134571 2.336218,-0.145097 6.041575,-2.419138 2.909199,-4.560385 C 11.707455,64.745444 7.9668028,65.737843 5.7704701,63.521958 4.3849265,62.124085 4.9186176,59.890763 6.4943965,58.886857 8.2931134,57.740926 11.352411,57.742468 13.357635,58.28787 c 1.522069,0.41399 4.793853,3.312975 1.5875,3.467756 m 7.408334,-3.704167 c 0,3.074564 -0.92247,8.112787 0.728821,10.847917 1.530191,2.534708 6.380533,2.871338 8.020685,0.259688 1.745456,-2.779051 0.775494,-7.953957 0.775494,-11.107605 h 1.5875 c 0,3.261704 1.045368,8.765487 -0.728927,11.64045 -2.023534,3.279378 -9.227185,3.292792 -11.242252,0 -1.76358,-2.881868 -0.728821,-8.382953 -0.728821,-11.64045 h 1.5875 m 26.458333,11.377084 0.06776,-8.039514 c 0.01286,-1.525719 -0.26035,-2.821213 1.5875,-2.910417 l -0.06776,13.331181 c -2.316956,-0.0094 -3.042708,-1.48643 -4.392613,-3.175 -2.12037,-2.652395 -4.116652,-6.029378 -6.719887,-8.202084 v 11.377084 h -1.5875 V 61.491042 c 0,-0.837538 -0.383381,-2.900296 0.586846,-3.312191 1.4351,-0.60932 2.524654,1.371737 3.230033,2.253858 2.398713,2.999264 4.675188,6.186752 7.295621,8.995834 m 24.341667,2.38125 c -3.048794,-0.01246 -1.893888,-2.76442 -4.009232,-3.998146 -1.321593,-0.770837 -4.275931,-0.274902 -5.780352,-0.233971 -2.954337,0.08038 -1.791758,4.218914 -5.027083,4.232117 1.409965,-3.475117 3.039798,-6.953806 4.698735,-10.318751 0.467255,-0.947287 0.896938,-2.885297 1.95633,-3.313416 1.765564,-0.713568 2.400829,1.334465 2.94587,2.519666 1.666082,3.622887 4.179094,7.254241 5.215732,11.112501 m 4.7625,0 h -1.852084 l 0.264584,-13.758334 c 2.027502,0.09788 1.5875,1.838299 1.5875,3.439583 v 10.318751 m 12.170833,-6.35 v 0.264583 c 2.909358,0.651351 4.821237,3.708268 6.35,6.085417 -3.579283,-0.0024 -4.099719,-3.481309 -6.61961,-5.426419 -1.649678,-1.273572 -3.859742,-0.923581 -5.815807,-0.923581 v 6.35 h -1.5875 V 58.051459 c 3.310996,0 8.046244,-0.776581 11.107473,0.712904 2.025121,0.985271 2.409031,3.776837 0.758296,5.286761 -1.094052,1.000813 -2.77786,1.239732 -4.192852,1.408669 m -24.60625,-6.879167 -2.910417,7.9375 h 6.35 l -3.439583,-7.9375 m 18.520833,0.529166 v 5.291667 c 2.337329,0 5.788554,0.6359 7.936177,-0.395658 1.360223,-0.653256 2.153444,-2.451999 1.110986,-3.751924 -1.671109,-2.084313 -6.68999,-1.144085 -9.047163,-1.144085 m 1.322917,4.7625 v -3.439583 c 1.644121,0 6.34074,-0.794941 7.437702,0.690854 0.674423,0.913606 -0.305329,1.974056 -1.089025,2.353072 -1.778794,0.86053 -4.420394,0.395657 -6.348677,0.395657 m -19.05,-2.116666 1.852083,4.233333 h -3.704166 z"
       id="path9527"
       sodipodi:nodetypes="cssccsccccsccsccccccccccccccccccccccccccccccccscccccccccccccccccccccscscccssscccccccscccsccccccscccccscccsccccscccccccccccccccccccccccccccccc" /><path
       style="fill:#ffffff;stroke:#000000;stroke-width:0.155585"
       d="m 38.429573,272.48746 c -9.773019,-1.32563 -17.671467,-6.02397 -20.628997,-12.27102 -0.577944,-1.22077 -1.152947,-2.95844 -1.152947,-3.48423 0,-0.29753 1.303019,-0.19007 2.744234,0.22632 2.449206,0.70762 4.214847,1.78477 8.341635,5.08891 4.59397,3.67818 6.8834,5.03059 9.844008,5.81502 2.003533,0.53085 5.293265,0.59672 7.38665,0.1479 6.173585,-1.3236 11.37445,-4.77628 12.770165,-8.47768 0.267859,-0.71035 0.316808,-1.11737 0.263917,-2.19457 -0.09191,-1.87191 -0.563784,-2.80564 -2.285009,-4.52149 -1.47001,-1.46541 -2.712373,-2.34185 -4.603453,-3.24752 -2.768817,-1.32605 -5.019461,-1.89057 -12.446825,-3.12198 -3.08059,-0.51075 -6.392497,-1.14199 -7.359793,-1.40276 -4.090352,-1.10271 -6.98129,-2.64838 -9.289476,-4.96672 -2.131854,-2.14123 -3.068166,-4.34486 -3.078042,-7.24422 -0.007,-2.05555 0.254075,-3.16292 1.210477,-5.13431 1.605381,-3.30912 4.302208,-5.49501 8.628085,-6.99344 3.52017,-1.21934 7.522895,-1.73405 12.378114,-1.5917 5.852781,0.17159 10.002094,1.11731 12.90861,2.94216 4.214876,2.6463 7.402674,6.24308 7.419157,8.371 0.0036,0.46782 -0.09516,0.93605 -0.246072,1.16637 -0.55412,0.84569 -2.088333,1.48767 -3.995892,1.67203 l -0.717408,0.0693 -0.255744,-0.79527 c -0.362384,-1.12689 -1.456311,-3.07018 -2.266562,-4.02639 -2.221948,-2.62222 -5.299138,-4.23207 -9.443989,-4.94067 -2.193904,-0.37506 -6.600082,-0.41512 -9.080964,-0.0825 -6.719531,0.90078 -11.218044,5.00608 -10.431959,9.52011 0.545142,3.13044 2.987818,5.31075 7.723399,6.89385 1.256281,0.41997 3.814668,1.01406 7.701473,1.78839 8.86419,1.7659 12.230298,2.71101 15.818914,4.4415 2.429995,1.17179 3.927362,2.21018 5.380766,3.73144 2.683842,2.80914 3.455154,6.19429 2.378476,10.43868 -1.675691,6.60577 -7.475347,10.94778 -16.298027,12.20177 -2.054504,0.29202 -7.102322,0.28211 -9.316921,-0.0183 z"
       id="path9798"
       transform="scale(0.26458333)" /><path
       style="fill:#ffffff;stroke:#000000;stroke-width:0.155585"
       d="m 97.983771,272.356 c -6.450094,-0.91738 -11.692934,-3.26195 -14.800846,-6.61887 -3.223826,-3.48212 -4.950111,-8.52698 -5.559729,-16.24766 -0.266978,-3.38121 -0.09381,-12.00681 0.381233,-18.98983 0.21539,-3.16616 0.44093,-6.92938 0.501198,-8.36271 l 0.10958,-2.60605 h 2.880603 2.880603 l -0.101801,3.38398 c -0.05599,1.86119 -0.205046,4.88927 -0.331235,6.72906 -1.082872,15.78802 -0.379288,23.70533 2.641037,29.71916 2.119649,4.22047 6.19434,7.10703 11.887196,8.42101 0.914352,0.21104 2.17732,0.33653 3.99935,0.39738 3.05543,0.10204 4.95692,-0.13228 7.25131,-0.89357 7.31196,-2.42615 10.69199,-8.09051 11.64693,-19.51829 0.24828,-2.97118 0.0924,-12.14931 -0.30521,-17.97188 -0.17245,-2.52535 -0.36293,-5.87008 -0.42329,-7.43272 l -0.10975,-2.84117 2.94106,0.0424 2.94106,0.0424 0.10321,3.11171 c 0.0568,1.71144 0.24796,5.1771 0.42488,7.70147 0.89474,12.7665 0.79979,19.19658 -0.36869,24.96747 -0.72674,3.58926 -2.07088,6.90998 -3.62279,8.95013 -2.96279,3.89491 -8.08071,6.6409 -14.50672,7.78348 -2.48764,0.44232 -8.10747,0.56755 -10.459189,0.23307 z"
       id="path9800"
       transform="scale(0.26458333)" /><path
       style="fill:#ffffff;stroke:#000000;stroke-width:0.155585"
       d="m 142.45757,249.05319 c -0.0432,-12.25818 -0.0783,-22.88271 -0.078,-23.61007 0.001,-3.18506 0.99525,-5.08778 2.96317,-5.67219 1.05935,-0.31459 1.76686,-0.30291 2.89352,0.0477 2.07119,0.64463 3.76452,2.24366 7.31835,6.91082 3.93562,5.16855 14.61221,18.85112 17.93528,22.98494 3.45839,4.30215 6.14018,7.47443 9.00141,10.64774 l 1.9551,2.16835 0.0973,-2.79069 c 0.0535,-1.53488 0.11354,-6.29135 0.13341,-10.56995 0.0199,-4.2786 0.0872,-11.38496 0.1495,-15.79191 0.12528,-8.85575 0.13874,-8.97654 1.148,-10.29977 0.76789,-1.00677 2.03439,-1.62041 3.9562,-1.91683 l 0.66124,-0.10199 -9e-5,9.62107 c -4e-5,5.29159 -0.0467,16.61351 -0.10359,25.15982 l -0.10351,15.53876 -1.17998,-0.1037 c -3.93057,-0.34543 -7.14476,-2.01307 -9.8431,-5.10698 -2.11761,-2.42804 -8.07049,-10.218 -13.34645,-17.46523 -5.62581,-7.72778 -8.51341,-11.36575 -12.04063,-15.16956 -1.74783,-1.88489 -5.18186,-5.13432 -5.426,-5.13432 -0.0662,0 -0.12027,9.66185 -0.12027,21.47077 v 21.47078 h -2.94615 -2.94614 z"
       id="path9802"
       transform="scale(0.26458333)" /><path
       style="fill:#ffffff;stroke:#000000;stroke-width:0.155585"
       d="m 220.75546,271.00919 c 2.66051,-6.9133 11.55781,-26.50578 16.62979,-36.61991 0.55785,-1.11244 1.68998,-3.70838 2.51584,-5.76877 1.67435,-4.17725 2.4831,-5.71704 3.72165,-7.08568 0.92722,-1.02461 1.86341,-1.5726 3.32738,-1.94765 1.9293,-0.49427 3.7133,0.11315 5.29465,1.80273 1.27145,1.35846 2.09591,2.79923 3.92201,6.85375 1.7604,3.90866 4.26387,8.84428 8.01003,15.7919 5.11576,9.48768 7.56016,14.46959 9.54549,19.45454 0.87629,2.20029 2.30793,6.38848 2.51817,7.36683 l 0.11334,0.52744 -1.11184,-0.10956 c -2.39748,-0.23624 -3.81393,-0.81665 -5.23334,-2.14444 -1.13472,-1.06147 -1.8368,-2.31253 -3.18907,-5.68265 -0.4922,-1.22664 -1.17606,-2.70053 -1.5197,-3.27532 -1.66965,-2.79268 -3.9735,-4.41483 -7.24912,-5.10408 -2.56257,-0.53922 -7.51014,-0.56274 -13.62621,-0.0648 -1.06965,0.0871 -3.01201,0.227 -4.31635,0.31091 -2.63715,0.16965 -3.75626,0.45785 -5.07892,1.30793 -1.69277,1.08797 -2.59236,2.37622 -4.67199,6.69053 -0.79998,1.6596 -1.68742,3.35715 -1.97209,3.77234 -1.75194,2.55522 -3.87414,3.8751 -6.72078,4.17995 l -1.05076,0.11253 z m 39.48695,-20.40015 c -0.19749,-0.44925 -3.11501,-7.18804 -6.48338,-14.97508 -3.36837,-7.78705 -6.14647,-14.18744 -6.17356,-14.22309 -0.0271,-0.0357 -0.0942,-0.0199 -0.14911,0.0351 -0.10545,0.10544 -10.73644,29.02903 -10.8906,29.62988 l -0.0898,0.35007 h 12.07277 12.07277 z"
       id="path9804"
       transform="scale(0.26458333)" /><path
       style="fill:#ffffff;stroke:#000000;stroke-width:0.155585"
       d="m 287.59021,269.20149 c 0.0497,-1.17661 0.26675,-12.18622 0.48224,-24.46579 0.2155,-12.27957 0.43197,-22.98291 0.48104,-23.7852 l 0.0892,-1.45871 0.83652,0.0983 c 2.61391,0.30721 4.28707,1.82166 4.78522,4.33132 0.15136,0.76252 0.1805,6.07752 0.13266,24.19825 l -0.0613,23.22111 h -3.41802 -3.41802 z"
       id="path9806"
       transform="scale(0.26458333)" /><path
       style="fill:#ffffff;stroke:#000000;stroke-width:0.155585"
       d="m 311.63738,245.4515 v -25.88929 l 1.90592,-0.0924 c 1.04826,-0.0508 5.19655,-0.24128 9.21843,-0.4233 14.2311,-0.64407 21.20468,-0.18341 27.22743,1.79856 3.53955,1.1648 5.7258,2.47541 7.28746,4.36868 4.76421,5.77588 3.4165,14.2415 -2.90224,18.23034 -2.7307,1.72382 -6.85776,2.98357 -11.85331,3.61814 -2.16202,0.27463 -2.1004,0.24984 -2.1004,0.84507 v 0.52077 l 1.57236,0.49845 c 1.99405,0.63212 4.77378,2.04827 6.66673,3.3964 1.70219,1.21228 5.12054,4.46485 6.82416,6.49321 1.84696,2.19903 3.99558,5.15272 6.46523,8.88769 1.25184,1.89322 2.27607,3.49507 2.27607,3.55967 0,0.0646 -0.5076,0.0689 -1.12799,0.01 -2.88252,-0.27577 -5.11993,-1.02856 -7.29679,-2.45505 -2.52231,-1.65286 -4.33687,-3.62961 -8.27749,-9.01735 -1.16865,-1.59782 -2.51321,-3.38316 -2.9879,-3.96742 -1.32404,-1.62966 -3.74601,-4.02729 -5.10082,-5.04955 -2.42258,-1.82793 -5.61312,-2.99616 -9.2494,-3.38671 -1.75492,-0.18848 -8.50595,-0.23123 -11.13294,-0.0705 l -1.65785,0.10143 v 11.95642 11.95643 h -2.87833 -2.87833 z m 25.84094,-1.3403 c 4.42954,-0.24567 7.40975,-0.89039 10.02148,-2.16797 1.76831,-0.865 3.00961,-1.89059 4.02943,-3.3292 1.43193,-2.01995 1.9606,-3.58761 1.9606,-5.81372 0,-5.13189 -4.0629,-8.57664 -11.51331,-9.76162 -3.96272,-0.63027 -8.08479,-0.64826 -17.09279,-0.0746 -2.59807,0.16545 -5.3461,0.30083 -6.10673,0.30083 h -1.38296 v 10.11304 10.11305 h 1.12367 c 0.61802,0 3.47106,0.13942 6.3401,0.30983 4.88328,0.29004 6.35971,0.36216 8.87269,0.43344 0.55622,0.0158 2.24274,-0.0396 3.74782,-0.12309 z"
       id="path9808"
       transform="scale(0.26458333)" /></g></svg>
